<?xml version="1.0" encoding="iso-8859-1"?>
<!-- Generator: Adobe Illustrator 19.0.0, SVG Export Plug-In . SVG Version: 6.00 Build 0)  -->
<svg version="1.1" id="Layer_1" xmlns="http://www.w3.org/2000/svg" xmlns:xlink="http://www.w3.org/1999/xlink" x="0px" y="0px"
	 viewBox="0 0 512 512" style="enable-background:new 0 0 512 512;" xml:space="preserve">
<g>
	<g>
		<path d="M414.413,129.558c-33.993-33.993-76.989-55.702-123.607-62.932c4.793-6.87,7.614-15.214,7.614-24.207
			C298.421,19.029,279.392,0,256,0S213.58,19.029,213.58,42.419c0,8.993,2.821,17.337,7.614,24.207
			c-46.618,7.23-89.615,28.939-123.607,62.932C55.274,171.872,31.97,228.13,31.97,287.971c0,59.839,23.303,116.099,65.616,158.412
			C139.902,488.697,196.16,512,256,512s116.099-23.303,158.413-65.617c42.313-42.314,65.616-98.573,65.616-158.412
			C480.03,228.13,456.727,171.871,414.413,129.558z M256,20.898c11.867,0,21.523,9.654,21.523,21.521
			c0,11.867-9.655,21.523-21.523,21.523c-11.867-0.001-21.523-9.656-21.523-21.523C234.478,30.552,244.134,20.898,256,20.898z
			 M256,491.102c-112.007,0-203.131-91.125-203.131-203.131S143.994,84.839,256,84.839s203.131,91.125,203.131,203.131
			S368.007,491.102,256,491.102z"/>
	</g>
</g>
<g>
	<g>
		<path d="M256,98.58c-104.429,0-189.39,84.961-189.39,189.391s84.961,189.39,189.39,189.39s189.39-84.96,189.39-189.39
			C445.39,183.539,360.43,98.58,256,98.58z M256,456.463c-92.907,0-168.492-75.585-168.492-168.492S163.093,119.478,256,119.478
			s168.492,75.586,168.492,168.493C424.492,380.877,348.908,456.463,256,456.463z"/>
	</g>
</g>
<g>
	<g>
		<path d="M256,131.856c-5.771,0-10.449,4.678-10.449,10.449v23.653c0,5.771,4.678,10.449,10.449,10.449
			c5.771,0,10.449-4.678,10.449-10.449v-23.653C266.449,136.534,261.771,131.856,256,131.856z"/>
	</g>
</g>
<g>
	<g>
		<path d="M256,399.532c-5.771,0-10.449,4.678-10.449,10.449v23.653c0,5.771,4.678,10.449,10.449,10.449
			c5.771,0,10.449-4.678,10.449-10.449v-23.653C266.449,404.21,261.771,399.532,256,399.532z"/>
	</g>
</g>
<g>
	<g>
		<path d="M401.664,277.522h-23.651c-5.77,0-10.449,4.678-10.449,10.449c0,5.771,4.679,10.449,10.449,10.449h23.652
			c5.77,0,10.449-4.678,10.449-10.449C412.113,282.2,407.435,277.522,401.664,277.522z"/>
	</g>
</g>
<g>
	<g>
		<path d="M133.988,277.522h-23.652c-5.77,0-10.449,4.678-10.449,10.449c0,5.771,4.679,10.449,10.449,10.449h23.652
			c5.77,0,10.449-4.678,10.449-10.449C144.437,282.2,139.759,277.522,133.988,277.522z"/>
	</g>
</g>
<g>
	<g>
		<path d="M366.389,383.582l-4.959-4.96c-4.081-4.08-10.696-4.08-14.778,0c-4.08,4.08-4.08,10.697,0,14.778l4.96,4.96
			c2.041,2.041,4.715,3.06,7.388,3.06c2.674,0,5.348-1.02,7.388-3.06C370.469,394.28,370.469,387.663,366.389,383.582z"/>
	</g>
</g>
<g>
	<g>
		<path d="M165.348,182.541l-4.96-4.96c-4.081-4.08-10.696-4.08-14.778,0c-4.08,4.08-4.08,10.697,0,14.778l4.961,4.96
			c2.041,2.041,4.715,3.06,7.388,3.06c2.674,0,5.348-1.02,7.388-3.06C169.429,193.238,169.429,186.622,165.348,182.541z"/>
	</g>
</g>
<g>
	<g>
		<path d="M165.349,378.622c-4.081-4.081-10.696-4.081-14.777,0l-4.96,4.96c-4.08,4.08-4.08,10.697,0,14.778
			c2.041,2.041,4.715,3.06,7.388,3.06s5.348-1.02,7.388-3.06l4.96-4.96C169.43,389.32,169.43,382.703,165.349,378.622z"/>
	</g>
</g>
<g>
	<g>
		<path d="M366.391,177.58c-4.081-4.08-10.696-4.08-14.778,0l-4.96,4.96c-4.08,4.08-4.08,10.697,0,14.778
			c2.042,2.04,4.716,3.06,7.39,3.06c2.675,0,5.348-1.02,7.388-3.06l4.96-4.96C370.471,188.278,370.471,181.662,366.391,177.58z"/>
	</g>
</g>
<g>
	<g>
		<path d="M320.072,223.899c-2.606-2.608-6.396-3.648-9.965-2.738l-90.364,23.003c-3.708,0.944-6.604,3.84-7.549,7.548
			l-23.003,90.364c-0.91,3.571,0.131,7.359,2.737,9.966c1.984,1.984,4.652,3.06,7.388,3.06c0.859,0,1.724-0.106,2.578-0.323
			l90.363-23.003c3.708-0.944,6.604-3.84,7.549-7.548l23.003-90.364C323.718,230.293,322.678,226.506,320.072,223.899z
			 M213.78,330.188l14.136-55.526l41.391,41.392L213.78,330.188z M284.084,301.278l-41.391-41.392l55.527-14.134L284.084,301.278z"
			/>
	</g>
</g>
<g>
</g>
<g>
</g>
<g>
</g>
<g>
</g>
<g>
</g>
<g>
</g>
<g>
</g>
<g>
</g>
<g>
</g>
<g>
</g>
<g>
</g>
<g>
</g>
<g>
</g>
<g>
</g>
<g>
</g>
</svg>
